<?xml version="1.0" encoding="utf-8"?>
<!-- Generator: Adobe Illustrator 25.0.0, SVG Export Plug-In . SVG Version: 6.00 Build 0)  -->
<svg version="1.1" id="Layer_1" xmlns="http://www.w3.org/2000/svg" xmlns:xlink="http://www.w3.org/1999/xlink" x="0px" y="0px"
	 viewBox="0 0 512 512" style="enable-background:new 0 0 512 512;" xml:space="preserve">
<style type="text/css">
	.st0{fill:#8DC63F;}
	.st1{fill:#F9E988;}
	.st2{fill:#FFFFFF;}
	.st3{fill:#8BC53F;}
	.st4{fill:#009345;}
	.st5{fill:#58595B;}
</style>
<g id="Coin_Gecko_AI">
	<path class="st0" d="M456,279.1c0.5,110.5-88.7,200.4-199.1,200.9C146.4,480.5,56.5,391.3,56,280.9C55.5,170.4,144.7,80.5,255.1,80
		l0,0C365.6,79.5,455.5,168.7,456,279.1C456,279.1,456,279.1,456,279.1z"/>
	<path class="st1" d="M441,279.2c0.5,102.2-81.9,185.4-184.1,185.9C154.8,465.6,71.6,383.2,71.1,281S153,95.6,255.1,95.1
		c0,0,0,0,0.1,0l0,0C357.3,94.7,440.5,177.1,441,279.2z"/>
	<path class="st2" d="M259.4,107c11.8-2.1,23.8-2.1,35.6,0c11.9,1.9,23.3,5.7,34,11.4c10.6,5.8,19.7,13.7,28.7,21
		s18.1,14.9,26.7,23.2c8.8,8.1,16.4,17.4,22.8,27.5c6.5,10.1,11.9,20.8,15.9,32.1c7.7,22.7,10.4,47.1,6.6,70.5h-1.1
		c-3.9-23.1-9.1-45.1-17.4-66.1c-3.9-10.5-8.5-20.8-13.7-30.7c-5.5-10-11.5-19.7-18-29c-6.6-9.4-14.8-17.6-24.1-24.3
		c-9.4-6.7-20.2-11-30.6-15.1s-20.8-8.3-31.7-11.5c-10.9-3.1-22-5.5-33.5-7.8L259.4,107z"/>
	<path class="st3" d="M349.8,213.9c-13.4-3.9-27.3-9.4-41.4-15c-0.8-3.5-3.9-7.9-10.3-13.3c-9.2-8-26.5-7.8-41.4-4.2
		c-16.5-3.9-32.8-5.3-48.4-1.4c-127.9,35.2-55.4,121.2-102.3,207.6c6.7,14.2,78.7,96.9,182.9,74.7c0,0-35.6-85.6,44.8-126.7
		C398.9,302,446,240.1,349.8,213.9z"/>
	<path class="st2" d="M365.6,270.1c0,4.3-3.4,7.8-7.7,7.8c-4.3,0-7.8-3.4-7.8-7.7c0-4.3,3.4-7.8,7.7-7.8
		C362.1,262.4,365.6,265.9,365.6,270.1z"/>
	<path class="st4" d="M256.7,181.3c9.3,0.7,43,11.6,51.7,17.6C301.2,177.9,276.8,175.1,256.7,181.3L256.7,181.3z"/>
	<path class="st2" d="M265.6,234.5c0,19.8-16,35.8-35.8,35.8c-19.8,0-35.8-16-35.8-35.8s16-35.8,35.8-35.8l0,0
		C249.5,198.7,265.5,214.7,265.6,234.5L265.6,234.5z"/>
	<path class="st5" d="M255,234.8c0,13.9-11.3,25.2-25.2,25.2s-25.2-11.3-25.2-25.2s11.3-25.2,25.2-25.2l0,0l0,0
		C243.7,209.6,255,220.9,255,234.8z"/>
	<path class="st3" d="M394.6,285.9c-29,20.4-61.9,35.9-108.7,35.9c-21.9,0-26.3-23.2-40.8-11.9c-7.5,5.9-33.8,19-54.7,18
		s-54.7-13.2-64.2-57.8c-3.7,44.6-5.7,77.4-22.4,115.1c33.3,53.4,112.8,94.6,185,76.8c-7.7-54.1,39.7-107.1,66.3-134.2
		C365.2,317.6,384.5,300.8,394.6,285.9L394.6,285.9z"/>
	<path class="st5" d="M393.5,287.2c-9,8.2-19.7,14.3-30.6,19.6c-11,5.2-22.5,9.4-34.3,12.5c-11.8,3.1-24.2,5.4-36.7,4.2
		s-25.3-5.4-33.5-14.7l0.4-0.4c10.1,6.6,21.9,8.9,33.5,9.2c11.8,0.4,23.6-0.6,35.2-2.9c11.7-2.5,23.2-6,34.2-10.6
		c11.1-4.6,22-9.9,31.4-17.4L393.5,287.2z"/>
</g>
</svg>
