<?xml version="1.0" encoding="utf-8"?>
<!-- Generator: Adobe Illustrator 25.0.0, SVG Export Plug-In . SVG Version: 6.00 Build 0)  -->
<svg version="1.1" id="Layer_1" xmlns="http://www.w3.org/2000/svg" xmlns:xlink="http://www.w3.org/1999/xlink" x="0px" y="0px"
	 viewBox="0 0 512 512" style="enable-background:new 0 0 512 512;" xml:space="preserve">
<style type="text/css">
	.st0{fill:#3861FB;}
</style>
<path class="st0" d="M401.6,319c-6.3,4.4-14.6,4.9-21.5,1.4c-7.9-4.5-12.2-15-12.2-29.3v-43.9c0-21.1-8.3-36-22.3-40.1
	c-23.5-6.9-41.2,22-47.9,32.8l-41.7,67.5v-82.4c-0.5-19-6.6-30.4-18.4-33.8c-7.7-2.3-19.3-1.4-30.6,15.8l-93.2,149.7
	c-12.4-23.7-18.9-50.1-18.8-76.9c0-90.2,72.1-163.6,161-163.6S417.1,189.8,417.1,280v0.5c0,0,0,0.3,0,0.5
	C417.9,298.4,412.3,312.3,401.6,319L401.6,319z M453.1,280v-0.9C452.3,169.2,364.2,80,255.9,80s-197,89.7-197,200s88.3,200,197,200
	c49.8,0,97.7-19.1,133.9-53.4c7.3-6.9,7.7-18.4,1-25.7c-6.6-7.2-17.7-7.8-25-1.2l-0.1,0.1c-63.8,60.5-164.6,57.9-225.2-5.9
	c-1.5-1.6-2.9-3.1-4.4-4.8l83.9-134.9v62.3c0,29.9,11.6,39.6,21.3,42.5c9.7,2.9,24.6,0.9,40.2-24.4l46.4-75.1
	c1.4-2.4,2.8-4.5,4.1-6.3v38.2c0,28,11.2,50.3,30.9,61.4c18.2,9.8,40.3,8.9,57.7-2.3c21.6-14.1,33.4-39.5,32.2-70.2H453.1z"/>
</svg>
