<?xml version="1.0" encoding="utf-8"?>
<!-- Generator: Adobe Illustrator 25.0.0, SVG Export Plug-In . SVG Version: 6.00 Build 0)  -->
<svg version="1.1" id="Layer_1" xmlns="http://www.w3.org/2000/svg" xmlns:xlink="http://www.w3.org/1999/xlink" x="0px" y="0px"
	 viewBox="0 0 130 130" style="enable-background:new 0 0 130 130;" xml:space="preserve">
<style type="text/css">
	.st0{fill:url(#SVGID_1_);}
	.st1{fill:url(#SVGID_2_);}
	.st2{fill:url(#SVGID_3_);}
	.st3{fill:url(#SVGID_4_);}
</style>
<g>
	<linearGradient id="SVGID_1_" gradientUnits="userSpaceOnUse" x1="54.0691" y1="1.4548" x2="15.7812" y2="88.4725">
		<stop  offset="0" style="stop-color:#9EFFAC"/>
		<stop  offset="1" style="stop-color:#159669"/>
	</linearGradient>
	<path class="st0" d="M36.7,44.6c-2.6,2.6-3.9,6-3.9,9.4c0,3.4,1.3,6.8,3.9,9.4c5.2,5.2,13.7,5.2,18.9,0L46.1,73
		C35.7,83.4,18.8,83.4,8.4,73l0,0c-10.4-10.4-10.4-27.3,0-37.8l18.8-18.8c5.2-5.2,12.1-7.8,18.9-7.8h37.8c-6.8,0-13.7,2.6-18.9,7.8
		L36.7,44.6z"/>
	<linearGradient id="SVGID_2_" gradientUnits="userSpaceOnUse" x1="25.9429" y1="154.1703" x2="116.3326" y2="21.3594">
		<stop  offset="0" style="stop-color:#45C28B"/>
		<stop  offset="0.9944" style="stop-color:#0C3F4F"/>
	</linearGradient>
	<path class="st1" d="M121.7,35.2c10.4,10.4,10.4,27.4,0,37.8l-37.8,37.8c-10.4,10.4-27.4,10.4-37.8,0L27.2,91.9
		c10.4,10.4,27.4,10.4,37.8,0l28.3-28.3c5.2-5.2,5.2-13.7,0-18.9c-5.2-5.2-13.7-5.2-18.9,0l9.5-9.5c5.2-5.2,12.1-7.8,18.9-7.8
		C109.6,27.4,116.5,30,121.7,35.2z"/>
	<linearGradient id="SVGID_3_" gradientUnits="userSpaceOnUse" x1="7.8807" y1="97.9735" x2="130.9021" y2="34.668">
		<stop  offset="0" style="stop-color:#9EFFAC"/>
		<stop  offset="0.9944" style="stop-color:#17A170"/>
	</linearGradient>
	<path class="st2" d="M93.4,44.7c5.2,5.2,5.2,13.7,0,18.9L65.1,91.9c-10.4,10.4-27.4,10.4-37.8,0L8.4,73c10.4,10.4,27.4,10.4,37.8,0
		l28.3-28.3C79.7,39.4,88.1,39.4,93.4,44.7z"/>
	<linearGradient id="SVGID_4_" gradientUnits="userSpaceOnUse" x1="145.106" y1="-24.7856" x2="20.7793" y2="96.6042">
		<stop  offset="0" style="stop-color:#45C28B"/>
		<stop  offset="0.9944" style="stop-color:#0C3F4F"/>
	</linearGradient>
	<path class="st3" d="M121.7,35.2c-5.2-5.2-12.1-7.8-18.9-7.8c-6.8,0-13.7,2.6-18.9,7.8l-9.3,9.3l-19,19c-5.2,5.2-13.7,5.2-18.9,0
		c-2.6-2.6-3.9-6-3.9-9.4c0-3.4,1.3-6.8,3.9-9.4L65,16.3c5.2-5.2,12.1-7.8,18.9-7.8s13.7,2.6,18.9,7.8L121.7,35.2z"/>
</g>
</svg>
