<?xml version="1.0" standalone="yes"?>
<svg xmlns="http://www.w3.org/2000/svg" width="64" height="64">
<path style="fill:#4b913f; stroke:none;" d="M0 0L0 64L64 64L64 0L0 0z"/>
<path style="fill:#2c461f; stroke:none;" d="M33 3L33 4L39 4L33 3M22 4L22 5L26 5L26 4L22 4z"/>
<path style="fill:#b9302b; stroke:none;" d="M23.6667 4.33333L24.3333 4.66667L23.6667 4.33333z"/>
<path style="fill:#2c461f; stroke:none;" d="M27.6667 4.33333L28.3333 4.66667L27.6667 4.33333z"/>
<path style="fill:#b9302b; stroke:none;" d="M21 5C4.17911 23.1855 35.9158 18.1278 46 20L44 17C49.0639 -0.170311 30.9341 5.50658 21 5z"/>
<path style="fill:#2c461f; stroke:none;" d="M41 4L42 5L41 4M20.3333 5.66667L20.6667 6.33333L20.3333 5.66667M18 7L19 8L18 7M44 7L45 8L44 7M16 8L17 9L16 8z"/>
<path style="fill:#ef8585; stroke:none;" d="M19 9L19 10L26 11L26 10L26 9L19 9z"/>
<path style="fill:#f9e0df; stroke:none;" d="M21 9L22 10L21 9M30 9L32 11L30 9z"/>
<path style="fill:#ef8585; stroke:none;" d="M36 10L36 11L39 11L36 10z"/>
<path style="fill:#f9e0df; stroke:none;" d="M41 9L42 10L41 9z"/>
<path style="fill:#ef8585; stroke:none;" d="M43.3333 9.66667L43.6667 10.3333L43.3333 9.66667z"/>
<path style="fill:#2c461f; stroke:none;" d="M15 10L16 11L15 10z"/>
<path style="fill:#f9e0df; stroke:none;" d="M18 10L19 11L18 10z"/>
<path style="fill:#ef8585; stroke:none;" d="M27 10L27 11L31 11L27 10M34 10L35 11L34 10z"/>
<path style="fill:#2c461f; stroke:none;" d="M45 11L44 17L45 11z"/>
<path style="fill:#ef8585; stroke:none;" d="M24 12L25 13L24 12z"/>
<path style="fill:#f9e0df; stroke:none;" d="M26 12L27 13L26 12M28 12L29 13L28 12z"/>
<path style="fill:#ef8585; stroke:none;" d="M36 12L38 14L36 12z"/>
<path style="fill:#f9e0df; stroke:none;" d="M39 12L40 13L39 12z"/>
<path style="fill:#2c461f; stroke:none;" d="M14 13L14 16L15 16L14 13z"/>
<path style="fill:#ef8585; stroke:none;" d="M22 13L23 14L22 13M26 13L26 14L29 14L26 13M34 13L35 14L34 13z"/>
<path style="fill:#2c461f; stroke:none;" d="M15.3333 16.6667L15.6667 17.3333L15.3333 16.6667M29.6667 16.3333L30.3333 16.6667L29.6667 16.3333M18 17L19 18L18 17M20 17L21 18L20 17M24.6667 17.3333L25.3333 17.6667L24.6667 17.3333M46 17L44 20L44 21L48 17L46 17M14 18L15 19L14 18M19 18L20 19L19 18M22 18L23 19L22 18M30.6667 18.3333L31.3333 18.6667L30.6667 18.3333z"/>
<path style="fill:#b9302b; stroke:none;" d="M48 18L47 21L53 23L50 21L48 18z"/>
<path style="fill:#2c461f; stroke:none;" d="M49 18L50 19L49 18M13 19L14 20L13 19M21 19L22 20L21 19M33 19L34 21L23 21L23 22L30 22L31 24L31 25L21 26L21 27L25 26L30 30L31 25L36 26L33 29L33 30C37.3117 27.6149 37.0367 24.5238 34 21L37 20L33 19M43 19L44 20L43 19M50.3333 19.6667L50.6667 20.3333L50.3333 19.6667M12 20L13 21L12 20z"/>
<path style="fill:#4b913f; stroke:none;" d="M27 20L27 21L34 21L27 20z"/>
<path style="fill:#2c461f; stroke:none;" d="M52 20L53 21L52 20M49 21L50 22L49 21M53.3333 21.6667L53.6667 22.3333L53.3333 21.6667M11 22L12 23L11 22M21 22L22 23L21 22z"/>
<path style="fill:#4b913f; stroke:none;" d="M31 23L31 24L35 26L36 25L31 23z"/>
<path style="fill:#2c461f; stroke:none;" d="M40 22L39 29L37 28L37 29C43.3634 30.8767 49.1983 29.6766 47 22C44.1136 23.9935 42.6856 24.4287 40 22M51 22L52 23L51 22M20 23L21 24L20 23M22.6667 23.3333L23.3333 23.6667L22.6667 23.3333M10 24L8 28L9 28L10 24M19 24L19 26L21 26L19 24M34 24L35 25L34 24M38 24L39 25L38 24z"/>
<path style="fill:#4b913f; stroke:none;" d="M46 24L45 26L46 24M31 25L32 26L31 25z"/>
<path style="fill:#f9e0df; stroke:none;" d="M32 25L31 30L35 29L32 25M23.6667 26.3333L24.3333 26.6667L23.6667 26.3333M26 26L27 27L26 26z"/>
<path style="fill:#4b913f; stroke:none;" d="M35.3333 26.6667L35.6667 27.3333L35.3333 26.6667z"/>
<path style="fill:#f9e0df; stroke:none;" d="M40 26L41 27L40 26M44 26C44.513 28.4751 44.6038 28.5746 47 28L44 26z"/>
<path style="fill:#4b913f; stroke:none;" d="M26 27L27 28L26 27z"/>
<path style="fill:#f9e0df; stroke:none;" d="M28.6667 27.3333L29.3333 27.6667L28.6667 27.3333M38.3333 27.6667L38.6667 28.3333L38.3333 27.6667M42 27L43 28L42 27z"/>
<path style="fill:#4b913f; stroke:none;" d="M43 27L44 28L43 27z"/>
<path style="fill:#2c461f; stroke:none;" d="M23 28L24 29L23 28z"/>
<path style="fill:#ef8585; stroke:none;" d="M40 28L41 29L40 28z"/>
<path style="fill:#2c461f; stroke:none;" d="M7.33333 29.6667L7.66667 30.3333L7.33333 29.6667M25 30L25 31L28 31L25 30M35 30L36 31L35 30M31 31L31 32L35 32L31 31M39 31L42 34L42 31L39 31M45 31L45 32C48.7034 38.7613 36.9025 38 33 38L33 39L48 40C48.3264 35.9047 48.903 33.2864 45 31M6 32L7 33L6 32M18.6667 32.3333L19.3333 32.6667L18.6667 32.3333M31.6667 33.3333L32.3333 33.6667L31.6667 33.3333M5.33333 34.6667L5.66667 35.3333L5.33333 34.6667M18 34L21 37L20 39L30 43L30 42L21 39L21 38L26 37L26 36L21 37L18 34M29.6667 34.3333L30.3333 34.6667L29.6667 34.3333M27 35L28 36L27 35z"/>
<path style="fill:#b9302b; stroke:none;" d="M18 36L21 38L18 36M21.6667 36.3333L22.3333 36.6667L21.6667 36.3333M47 36L45 39L47 36z"/>
<path style="fill:#2c461f; stroke:none;" d="M18 37L19 38L18 37z"/>
<path style="fill:#b9302b; stroke:none;" d="M21 38L21 39C27.8264 41.7999 42.2963 47.5301 47 39L21 38z"/>
<path style="fill:#2c461f; stroke:none;" d="M28 37L28 38L31 38L28 37M24 38L25 39L24 38M4 39L4 42L5 42L4 39M27 39L27 40L32 40L27 39M35 40L35 41L44 41L35 40M46 41L47 42L46 41M45 42L46 43L45 42M32 43L32 44L44 43L32 43z"/>
<path style="fill:#4b913f; stroke:none;" d="M41 43L42 44L41 43z"/>
<path style="fill:#2c461f; stroke:none;" d="M45 44L46 45L45 44M40 45L41 46L40 45M44 45L45 46L44 45M39 46L40 47L39 46M37 47C36.7108 51.9975 39.7581 54.7513 44 57L40 54L40 53L45 49L39 50L37 47M46 47L47 48L46 47M33 48L36 53L33 48z"/>
<path style="fill:#4b913f; stroke:none;" d="M37.3333 48.6667L37.6667 49.3333L37.3333 48.6667M41 49L39 52L43 51L41 49z"/>
<path style="fill:#2c461f; stroke:none;" d="M4 51L5 52L4 51M50 51L52 53L50 51M45 52L44 54L45 52M5 53L8 56L5 53M48 54L46 58L51 55L47 57L48 54M52 54L53 55L52 54M34 56L34 57L38 58L36 55L34 56M10 56L11 57L10 56M53 56L54 57L53 56M12 57L12 58L15 58L12 57M31.6667 57.3333L32.3333 57.6667L31.6667 57.3333M19 58L19 59L22 59L19 58M39 58L39 59L46 60L46 59L39 58M51 58L52 59L51 58M47 59L47 60L50 60L47 59z"/>
</svg>
