<?xml version="1.0" encoding="utf-8"?>
<!-- Generator: Adobe Illustrator 25.0.0, SVG Export Plug-In . SVG Version: 6.00 Build 0)  -->
<svg version="1.1" id="Layer_1" xmlns="http://www.w3.org/2000/svg" xmlns:xlink="http://www.w3.org/1999/xlink" x="0px" y="0px"
	 viewBox="0 0 582 112" style="enable-background:new 0 0 582 112;" xml:space="preserve">
<style type="text/css">
	.st0{fill:#FFFFFF;}
	.st1{fill:url(#SVGID_1_);}
	.st2{fill:url(#SVGID_2_);}
	.st3{fill:url(#SVGID_3_);}
	.st4{fill:url(#SVGID_4_);}
</style>
<g>
	<path class="st0" d="M579.7,42.6c-4.6,0.5-8.5,3-10.2,7.6v-5.3c0-0.9-0.7-1.6-1.6-1.6h-7c-0.9,0-1.6,0.7-1.6,1.6v36.9
		c0,0.9,0.7,1.6,1.6,1.6h7c0.9,0,1.6-0.7,1.6-1.6V64.2c0-3.8,1.2-6.6,3.6-8.2c2-1.4,4.3-2.1,6.8-2c0.9,0,1.6-0.7,1.6-1.6v-8.2
		C581.5,43.3,580.6,42.5,579.7,42.6z"/>
	<path class="st0" d="M209,53.2h-24.5c-0.9,0-1.6,0.7-1.6,1.6v6.6c0,0.9,0.7,1.6,1.6,1.6h15.1c-2,6.7-7.6,10.7-16,10.7
		c-5.7,0-10.2-1.7-13.7-5.1c-3.4-3.4-5.1-7.8-5.1-13.1c0-5.4,1.7-9.8,5-13.2c3.4-3.5,7.7-5.3,13-5.3c6,0,11.2,2.7,14,6.6
		c0.5,0.6,1.3,0.8,2,0.4l6.6-3.9c0.8-0.5,1.1-1.5,0.5-2.3c-4.9-7.1-13.4-11.6-23.1-11.6c-8.2,0-15,2.8-20.6,8.5
		c-5.5,5.7-8.3,12.6-8.3,20.7c0,8.1,2.8,15,8.3,20.7c5.6,5.6,12.7,8.4,21.2,8.4c7.9,0,14.5-2.5,19.5-7.4c5-5,7.6-11.4,7.6-19.5v-2.7
		C210.6,54,209.8,53.2,209,53.2z"/>
	<path class="st0" d="M250.4,48.3c-3.7-4.1-8.5-6.1-14.2-6.1c-6.1,0-11.1,2-15,6.1c-3.9,4-5.8,9-5.8,15.1c0,6.1,2,11.1,5.9,15.1
		c3.9,4,9.1,6,15.7,6c6.8,0,12.2-2.3,16-7c0.6-0.8,0.5-1.9-0.4-2.4l-5.5-3.2c-0.6-0.4-1.4-0.3-1.9,0.2c-1.9,2.1-4.7,3.1-8.1,3.1
		c-6.1,0-9.7-2.5-11.1-7.5l28.3,0c0.8,0,1.5-0.6,1.5-1.4c0.1-1,0.2-1.9,0.2-2.8C256.1,57.3,254.2,52.4,250.4,48.3z M225.9,59.6
		c1.2-5.1,4.9-8.1,10.3-8.1c4.6,0,8.6,2.6,9.7,8.1H225.9z"/>
	<path class="st0" d="M306.2,42.2c-5.2,0-9.1,1.9-11.7,5.8c-2.3-3.8-5.9-5.8-10.7-5.8c-5,0-8.6,1.8-10.9,5.4v-2.7
		c0-0.9-0.7-1.6-1.6-1.6h-7c-0.9,0-1.6,0.7-1.6,1.6v36.9c0,0.9,0.7,1.6,1.6,1.6h7c0.9,0,1.6-0.7,1.6-1.6V60.9c0-5.8,2.9-9,7.4-9
		c4.2,0,6.6,2.8,6.6,7.6v22.4c0,0.9,0.7,1.6,1.6,1.6h7c0.9,0,1.6-0.7,1.6-1.6V60.9c0-5.8,2.7-9,7.3-9c4.2,0,6.6,2.8,6.6,7.6v22.4
		c0,0.9,0.7,1.6,1.6,1.6h7c0.9,0,1.6-0.7,1.6-1.6V58.7C321.1,48.7,315.3,42.2,306.2,42.2z"/>
	<path class="st0" d="M345.8,59.1c-4-1-7.2-2.2-7.2-4.4c0-2,2-3.3,4.6-3.3c2.4,0,4.3,0.9,5.6,2.8c0.5,0.7,1.3,0.9,2,0.5l5.8-3.3
		c0.8-0.5,1.1-1.6,0.5-2.4c-3.2-4.5-8.2-7-14-7c-4.2,0-7.8,1.1-10.7,3.4c-2.8,2.2-4.3,5.4-4.3,9.3c0,8.3,7.3,10.8,13.1,12.3
		c4,1,7.2,2.2,7.2,4.4c0,2.3-1.8,3.4-5.4,3.4c-3.4,0-5.7-1.3-7-3.7c-0.4-0.8-1.4-1.1-2.1-0.6l-6,3.4c-0.8,0.4-1,1.5-0.6,2.2
		c3.1,5.3,8.3,8,15.8,8c4.5,0,8.3-1.1,11.2-3.3c3.1-2.2,4.6-5.4,4.6-9.5C359,63.1,351.5,60.3,345.8,59.1z"/>
	<path class="st0" d="M406.7,81l-10-17.3c-0.4-0.8-0.2-1.8,0.6-2.2c4-2.1,7.4-5.2,8.4-9.6c1.9-7.8,0.3-14.2-4.6-19.2
		c-3.5-3.6-7.8-5.4-13-5.4h-20.5c-0.9,0-1.6,0.7-1.6,1.6v52.9c0,0.9,0.7,1.6,1.6,1.6h7.7c0.9,0,1.6-0.7,1.6-1.6V63.9h7.3
		c0.6,0,1.1,0.3,1.4,0.8l10.2,17.9c0.3,0.5,0.8,0.8,1.3,0.8h8.1C406.5,83.4,407.3,82,406.7,81z M388.2,54.2H377V37.6h11.2
		c4.1,0,7.5,3.7,7.5,8.2C395.6,50.5,392.3,54.2,388.2,54.2z"/>
	<path class="st0" d="M451.3,43.3h-7c-0.9,0-1.6,0.7-1.6,1.6v3.2c-3.1-3.9-7.3-5.8-12.8-5.8c-5.3,0-9.8,2.1-13.5,6.2
		c-3.7,4.1-5.6,9-5.6,15c0,5.9,1.9,11,5.6,15c3.8,4.1,8.2,6.1,13.5,6.1c5.5,0,9.8-1.9,12.8-5.8v3.1c0,0.9,0.7,1.6,1.6,1.6h7
		c0.9,0,1.6-0.7,1.6-1.6V44.9C452.9,44,452.2,43.3,451.3,43.3z M439.6,71.5c-2.1,2.1-4.7,3.1-7.8,3.1c-3.1,0-5.7-1-7.8-3.1
		c-2-2.2-3.1-4.9-3.1-8.2c0-3.3,1-6,3.1-8.1c2.1-2.2,4.7-3.2,7.8-3.2c3.1,0,5.7,1,7.8,3.2c2.1,2.1,3.1,4.8,3.1,8.1
		C442.8,66.6,441.7,69.3,439.6,71.5z"/>
	<path class="st0" d="M500.1,27.3h-7c-0.9,0-1.6,0.7-1.6,1.6v19.2c-3-3.9-7.2-5.8-12.7-5.8c-5.3,0-9.8,2.1-13.6,6.2
		c-3.7,4.1-5.6,9-5.6,15c0,5.9,1.9,11,5.6,15c3.8,4.1,8.3,6.1,13.6,6.1c5.5,0,9.7-1.9,12.7-5.8v3.1c0,0.9,0.7,1.6,1.6,1.6h7
		c0.9,0,1.6-0.7,1.6-1.6V28.9C501.7,28,501,27.3,500.1,27.3z M488.5,71.5c-2.1,2.1-4.6,3.1-7.8,3.1c-3.1,0-5.7-1-7.8-3.1
		c-2.1-2.2-3.1-4.9-3.1-8.2c0-3.3,1-6,3.1-8.1c2.1-2.2,4.7-3.2,7.8-3.2c3.2,0,5.7,1,7.8,3.2c2.1,2.1,3.1,4.8,3.1,8.1
		C491.6,66.6,490.6,69.3,488.5,71.5z"/>
	<path class="st0" d="M549,43.3h-7c-0.9,0-1.6,0.7-1.6,1.6v3.2c-3.1-3.9-7.3-5.8-12.8-5.8c-5.3,0-9.8,2.1-13.5,6.2
		c-3.7,4.1-5.6,9-5.6,15c0,5.9,1.9,11,5.6,15c3.8,4.1,8.2,6.1,13.5,6.1c5.5,0,9.8-1.9,12.8-5.8v3.1c0,0.9,0.7,1.6,1.6,1.6h7
		c0.9,0,1.6-0.7,1.6-1.6V44.9C550.6,44,549.9,43.3,549,43.3z M537.3,71.5c-2.1,2.1-4.7,3.1-7.8,3.1c-3.1,0-5.7-1-7.8-3.1
		c-2.1-2.2-3.1-4.9-3.1-8.2c0-3.3,1-6,3.1-8.1c2-2.2,4.6-3.2,7.8-3.2c3.1,0,5.7,1,7.8,3.2c2.1,2.1,3.1,4.8,3.1,8.1
		C540.4,66.6,539.4,69.3,537.3,71.5z"/>
	<g>
		<linearGradient id="SVGID_1_" gradientUnits="userSpaceOnUse" x1="54.0938" y1="-6.0769" x2="15.806" y2="80.9408">
			<stop  offset="0" style="stop-color:#9EFFAC"/>
			<stop  offset="1" style="stop-color:#159669"/>
		</linearGradient>
		<path class="st1" d="M36.7,37.1c-2.6,2.6-3.9,6-3.9,9.4c0,3.4,1.3,6.8,3.9,9.4c5.2,5.2,13.7,5.2,18.9,0l-9.5,9.5
			c-10.4,10.4-27.3,10.4-37.8,0l0,0C-2.1,55-2.1,38.1,8.3,27.6L27.2,8.8c5.2-5.2,12.1-7.8,18.9-7.8h37.8c-6.8,0-13.7,2.6-18.9,7.8
			L36.7,37.1z"/>
		<linearGradient id="SVGID_2_" gradientUnits="userSpaceOnUse" x1="25.9676" y1="146.6386" x2="116.3573" y2="13.8277">
			<stop  offset="0" style="stop-color:#45C28B"/>
			<stop  offset="0.9944" style="stop-color:#0C3F4F"/>
		</linearGradient>
		<path class="st2" d="M121.7,27.7c10.4,10.4,10.4,27.4,0,37.8L84,103.2c-10.4,10.4-27.4,10.4-37.8,0L27.3,84.3
			c10.4,10.4,27.4,10.4,37.8,0L93.4,56c5.2-5.2,5.2-13.7,0-18.9c-5.2-5.2-13.7-5.2-18.9,0l9.5-9.5c5.2-5.2,12.1-7.8,18.9-7.8
			C109.7,19.8,116.5,22.4,121.7,27.7z"/>
		<linearGradient id="SVGID_3_" gradientUnits="userSpaceOnUse" x1="7.9054" y1="90.4418" x2="130.9268" y2="27.1363">
			<stop  offset="0" style="stop-color:#9EFFAC"/>
			<stop  offset="0.9944" style="stop-color:#17A170"/>
		</linearGradient>
		<path class="st3" d="M93.4,37.1c5.2,5.2,5.2,13.7,0,18.9L65.1,84.3c-10.4,10.4-27.4,10.4-37.8,0L8.4,65.4
			c10.4,10.4,27.4,10.4,37.8,0l28.3-28.3C79.7,31.9,88.2,31.9,93.4,37.1z"/>
		<linearGradient id="SVGID_4_" gradientUnits="userSpaceOnUse" x1="145.1307" y1="-32.3173" x2="20.8041" y2="89.0725">
			<stop  offset="0" style="stop-color:#45C28B"/>
			<stop  offset="0.9944" style="stop-color:#0C3F4F"/>
		</linearGradient>
		<path class="st4" d="M121.7,27.7c-5.2-5.2-12.1-7.8-18.9-7.8c-6.8,0-13.7,2.6-18.9,7.8L74.6,37l-19,19c-5.2,5.2-13.7,5.2-18.9,0
			c-2.6-2.6-3.9-6-3.9-9.4c0-3.4,1.3-6.8,3.9-9.4L65,8.8c5.2-5.2,12.1-7.8,18.9-7.8c6.8,0,13.7,2.6,18.9,7.8L121.7,27.7z"/>
	</g>
</g>
</svg>
