<?xml version="1.0" encoding="utf-8"?>
<!-- Generator: Adobe Illustrator 25.0.0, SVG Export Plug-In . SVG Version: 6.00 Build 0)  -->
<svg version="1.1" id="Layer_1" xmlns="http://www.w3.org/2000/svg" xmlns:xlink="http://www.w3.org/1999/xlink" x="0px" y="0px"
	 viewBox="0 0 512 512" style="enable-background:new 0 0 512 512;" xml:space="preserve">
<style type="text/css">
	.st0{fill:#F0B90B;}
</style>
<g>
	<path class="st0" d="M124.4,280l0.2,77.4l65.7,38.7v45.3L86.1,380.2V257.4L124.4,280L124.4,280z M124.4,202.6v45.1l-38.3-22.6V180
		l38.3-22.6l38.5,22.6L124.4,202.6L124.4,202.6z M217.8,180l38.3-22.6l38.5,22.6l-38.5,22.6L217.8,180L217.8,180z"/>
	<path class="st0" d="M152,341.3V296l38.3,22.6v45.1L152,341.3L152,341.3z M217.8,412.3l38.3,22.6l38.5-22.6v45.1L256.1,480
		l-38.3-22.6V412.3L217.8,412.3z M349.4,180l38.3-22.6l38.5,22.6v45.1l-38.5,22.6v-45.1L349.4,180L349.4,180L349.4,180z
		 M387.7,357.4l0.2-77.4l38.3-22.6v122.8L322,441.3V396L387.7,357.4L387.7,357.4L387.7,357.4z"/>
	<polygon class="st0" points="360.3,341.3 322,363.8 322,318.7 360.3,296 	"/>
	<path class="st0" d="M360.3,218.7l0.2,45.3l-65.9,38.7v77.6l-38.3,22.4L218,380.2v-77.6L152.1,264v-45.3l38.4-22.6l65.5,38.9
		L322,196l38.5,22.6L360.3,218.7L360.3,218.7z M152,141.3l104-61.3l104.2,61.3L322,164l-65.9-38.9L190.3,164L152,141.3L152,141.3z"
		/>
</g>
</svg>
